<?xml version="1.0" encoding="UTF-8" standalone="no"?>
<svg
   xmlns:dc="http://purl.org/dc/elements/1.1/"
   xmlns:cc="http://creativecommons.org/ns#"
   xmlns:rdf="http://www.w3.org/1999/02/22-rdf-syntax-ns#"
   xmlns:svg="http://www.w3.org/2000/svg"
   xmlns="http://www.w3.org/2000/svg"
   xmlns:sodipodi="http://sodipodi.sourceforge.net/DTD/sodipodi-0.dtd"
   xmlns:inkscape="http://www.inkscape.org/namespaces/inkscape"
   id="icons"
   enable-background="new 0 0 64 64"
   height="512"
   viewBox="0 0 64 64"
   width="512"
   version="1.1"
   sodipodi:docname="truck_WO_boxes.svg"
   inkscape:version="0.92.3 (2405546, 2018-03-11)">
  <metadata
     id="metadata843">
    <rdf:RDF>
      <cc:Work
         rdf:about="">
        <dc:format>image/svg+xml</dc:format>
        <dc:type
           rdf:resource="http://purl.org/dc/dcmitype/StillImage" />
        <dc:title />
      </cc:Work>
    </rdf:RDF>
  </metadata>
  <defs
     id="defs841">
    <inkscape:path-effect
       effect="spiro"
       id="path-effect887"
       is_visible="true" />
    <inkscape:path-effect
       effect="spiro"
       id="path-effect883"
       is_visible="true" />
  </defs>
  <sodipodi:namedview
     pagecolor="#ffffff"
     bordercolor="#666666"
     borderopacity="1"
     objecttolerance="10"
     gridtolerance="10"
     guidetolerance="10"
     inkscape:pageopacity="0"
     inkscape:pageshadow="2"
     inkscape:window-width="1920"
     inkscape:window-height="1027"
     id="namedview839"
     showgrid="false"
     inkscape:snap-global="false"
     inkscape:zoom="0.28104732"
     inkscape:cx="339.19359"
     inkscape:cy="-3.1267344"
     inkscape:window-x="1912"
     inkscape:window-y="-8"
     inkscape:window-maximized="1"
     inkscape:current-layer="icons" />
  <g
     id="g943" />
  <g
     id="g1066"
     transform="translate(-22.683013,-88.952992)">
    <g
       transform="translate(-101.40641,45.366025)"
       id="g1008">
      <g
         id="g1029">
        <rect
           y="53.305302"
           x="128.94167"
           height="49.065067"
           width="60.072441"
           id="rect987"
           style="opacity:1;fill:#ffffff;fill-opacity:1;stroke:#ffffff;stroke-width:0.09084515;stroke-miterlimit:4;stroke-dasharray:none;stroke-opacity:1" />
        <g
           transform="translate(62.9925,-23.161071)"
           id="g985">
          <path
             inkscape:connector-curvature="0"
             id="path853"
             d="m 124.43403,104.16557 c -0.019,-0.066 -0.038,-0.129 -0.069,-0.189 -0.012,-0.022 -0.012,-0.047 -0.025,-0.068 l -8,-13.000002 c -0.021,-0.033 -0.053,-0.052 -0.076,-0.082 -0.042,-0.054 -0.086,-0.104 -0.139,-0.148 -0.05,-0.042 -0.102,-0.075 -0.158,-0.106 -0.054,-0.03 -0.107,-0.056 -0.167,-0.076 -0.067,-0.022 -0.134,-0.033 -0.204,-0.041 -0.037,-0.004 -0.069,-0.021 -0.107,-0.021 h -11 v -9.98 c 0,-1.655 -1.347,-3.002 -3.002,-3.002 H 70.512034 c -1.579,0 -2.862,1.229 -2.979,2.778 -0.018,0.071 -0.045,0.142 -0.045,0.221 v 16.991 c 0,0.002 0.001,0.003 0.001,0.005 v 11.979002 h -6.001 c -0.553,0 -1,0.447 -1,1 v 13.001 c 0,0.553 0.447,1 1,1 h 14.002 14.002 c 0.553,0 1,-0.447 1,-1 v -6.001 h 14.075996 c 0.488,3.387 3.401,6 6.92,6 3.519,0 6.432,-2.613 6.92,-6 h 5.08 c 0.553,0 1,-0.447 1,-1 v -6 -5.995 c 0,-0.026 -0.013,-0.048 -0.015,-0.073 -0.005,-0.066 -0.02,-0.128 -0.039,-0.193 z M 69.488034,80.562568 c 0.005,-0.038 0.022,-0.071 0.022,-0.111 0,-0.553 0.449,-1.002 1.002,-1.002 h 30.974996 c 0.553,0 1.002,0.449 1.002,1.002 V 105.42857 H 83.491034 v -7.986002 c 0,-0.553 -0.447,-1 -1,-1 h -13.003 z m 13.991,30.864002 v 2.018 h -2 v -2.001 h 1.012 c 0.029,0 0.054,-0.015 0.082,-0.017 z m -6.989,-12.984002 v 2.009002 h -2 v -2.009002 z m -9.001,12.984002 h 0.918 c 0.028,0.002 0.053,0.017 0.082,0.017 h 1 v 2.001 h -2 z m 7.001,11.001 h -12.002 v -11.001 h 3.001 v 3.018 c 0,0.553 0.447,1 1,1 h 4 c 0.553,0 1,-0.447 1,-1 v -3.001 h 3.001 z m -5.001,-13.001 V 98.442568 h 3.001 v 3.009002 c 0,0.553 0.447,1 1,1 h 4 c 0.553,0 1,-0.447 1,-1 v -3.009002 h 3.001 v 10.984002 h -6.001 z m 19.003,6.942 c -0.001,0.021 -0.012,0.038 -0.012,0.059 0,0.021 0.011,0.038 0.012,0.059 v 5.942 h -12.002 v -10.985 h 2.989 v 3.001 c 0,0.553 0.447,1 1,1 h 4 c 0.553,0 1,-0.447 1,-1 v -3.018 h 3.013 z m 22.995996,5.058 c -2.757,0 -5,-2.243 -5,-5 0,-2.757 2.243,-5 5,-5 2.757,0 5,2.243 5,5 0,2.757 -2.243,5 -5,5 z m 11,-11 v 5 h -4.08 c -0.488,-3.387 -3.401,-6 -6.92,-6 -3.519,0 -6.432,2.613 -6.92,6 H 90.492034 v -5 c 0,-0.553 -0.447,-1 -1,-1 h -6.001 v -1.998 h 18.997996 v 0.999 c 0,0.553 0.447,1 1,1 0.553,0 1,-0.447 1,-1 V 92.431568 h 10.44 l 7.559,12.283002 z" />
          <path
             inkscape:connector-curvature="0"
             id="path855"
             d="m 111.48803,113.42657 c -1.654,0 -3,1.346 -3,3 0,1.654 1.346,3 3,3 1.654,0 3,-1.346 3,-3 0,-1.654 -1.346,-3 -3,-3 z m 0,4 c -0.552,0 -1,-0.448 -1,-1 0,-0.552 0.448,-1 1,-1 0.552,0 1,0.448 1,1 0,0.552 -0.448,1 -1,1 z" />
          <path
             inkscape:connector-curvature="0"
             id="path857"
             d="m 114.33603,93.819568 c -0.041,-0.051 -0.081,-0.098 -0.13,-0.14 -0.054,-0.045 -0.109,-0.081 -0.17,-0.114 -0.05,-0.027 -0.099,-0.051 -0.154,-0.069 -0.072,-0.025 -0.145,-0.037 -0.221,-0.045 -0.033,-0.003 -0.063,-0.02 -0.097,-0.02 h -3.065 c -0.004,0 -0.007,-0.002 -0.01,-0.002 -0.003,0 -0.006,0.002 -0.01,0.002 h -3.99 c -0.553,0 -1,0.447 -1,1 v 8.000002 c 0,0.553 0.447,1 1,1 h 11.999 0.001 c 0.115,0 0.229,-0.028 0.342,-0.069 0.032,-0.012 0.063,-0.025 0.093,-0.04 0.029,-0.015 0.061,-0.021 0.089,-0.039 0.033,-0.021 0.052,-0.053 0.081,-0.076 0.055,-0.042 0.104,-0.086 0.149,-0.14 0.042,-0.049 0.074,-0.1 0.104,-0.155 0.031,-0.055 0.058,-0.109 0.078,-0.171 0.021,-0.066 0.033,-0.131 0.041,-0.2 0.004,-0.039 0.022,-0.071 0.022,-0.11 0,-0.025 -0.013,-0.047 -0.015,-0.071 -0.005,-0.067 -0.021,-0.131 -0.039,-0.196 -0.019,-0.066 -0.038,-0.129 -0.069,-0.188 -0.012,-0.021 -0.012,-0.047 -0.025,-0.068 l -4.924,-8.002002 c -0.022,-0.036 -0.056,-0.056 -0.08,-0.087 z m -4.847,7.612002 h -2 v -6.000002 h 2 z m 2,0 v -6.000002 h 1.518 l 3.692,6.000002 z" />
          <path
             inkscape:connector-curvature="0"
             id="path859"
             d="m 107.48903,104.42857 h -1 c -0.553,0 -1,0.447 -1,1 0,0.553 0.447,1 1,1 h 1 c 0.553,0 1,-0.447 1,-1 0,-0.553 -0.447,-1 -1,-1 z" />
          <circle
             r="1.5"
             cy="119.8231"
             cx="69.110565"
             style="fill:#000000;stroke:none"
             id="path879" />
          <path
             sodipodi:nodetypes="cccc"
             inkscape:original-d="m 68.377607,108.18637 -0.0035,0.88729 -0.107371,7.74957 21.600293,-0.22242"
             inkscape:path-effect="#path-effect887"
             inkscape:connector-curvature="0"
             id="path885"
             d="m 68.377607,108.18637 c -8.66e-4,0.29576 -0.002,0.59153 -0.0035,0.88729 -0.01282,2.58344 -0.04861,5.16677 -0.107371,7.74957 l 21.600293,-0.22242"
             style="fill:#000000;stroke:#000000;stroke-width:3.09779525;stroke-linecap:butt;stroke-linejoin:miter;stroke-miterlimit:4;stroke-dasharray:none;stroke-opacity:1" />
          <path
             inkscape:connector-curvature="0"
             id="path873"
             d="M 83.493935,105.35034 H 69.553068 l -0.0065,-8.908187 14.569983,-0.0025 -0.622652,8.910697"
             style="fill:#ffffff;stroke:#ffffff;stroke-width:0.12420995px;stroke-linecap:butt;stroke-linejoin:miter;stroke-opacity:1" />
          <path
             sodipodi:nodetypes="ccccccc"
             inkscape:connector-curvature="0"
             id="path877"
             d="m 67.433438,107.47397 0.09491,10.02971 23.479025,-0.0393 -0.19656,7.39067 -31.449631,-0.15725 0.943489,-17.21867 z"
             style="fill:#ffffff;stroke:#ffffff;stroke-width:0.12519684;stroke-linecap:butt;stroke-linejoin:miter;stroke-miterlimit:4;stroke-dasharray:none;stroke-opacity:1" />
          <path
             sodipodi:nodetypes="ccccc"
             inkscape:connector-curvature="0"
             id="path889"
             d="m 69.55012,108.03173 v 7.28303 l 22.516225,0.0556 -0.111191,-7.17183 z"
             style="fill:#ffffff;stroke:#ffffff;stroke-width:0.125px;stroke-linecap:butt;stroke-linejoin:miter;stroke-opacity:1" />
          <g
             id="g957"
             transform="translate(-2.5766747,-9.3279061)">
            <g
               transform="matrix(1.0333442,0,0,1.0333442,-79.708446,-21.412563)"
               id="g871">
              <g
                 transform="translate(32.690223,9.3400635)"
                 id="g926">
                <path
                   d="m 122.27358,126.32476 c -3.67701,0 -6.66931,2.99229 -6.66931,6.66931 0,3.67702 2.9923,6.66931 6.66931,6.66931 3.67702,0 6.66931,-2.99229 6.66931,-6.66931 0,-3.67702 -2.99229,-6.66931 -6.66931,-6.66931 z m 0,8.89241 c -1.22715,0 -2.2231,-0.99595 -2.2231,-2.2231 0,-1.22715 0.99595,-2.2231 2.2231,-2.2231 1.22715,0 2.2231,0.99595 2.2231,2.2231 0,1.22715 -0.99595,2.2231 -2.2231,2.2231 z"
                   id="path910"
                   inkscape:connector-curvature="0"
                   style="opacity:1;fill:#000000;fill-opacity:1;stroke-width:0.04049306;stroke-miterlimit:4;stroke-dasharray:none" />
                <path
                   style="opacity:1;fill:#ffffff;fill-opacity:1;stroke-width:0.03036651;stroke-miterlimit:4;stroke-dasharray:none"
                   inkscape:connector-curvature="0"
                   id="path912"
                   d="m 122.27358,127.99263 c -2.75746,0 -5.00144,2.24397 -5.00144,5.00144 0,2.75747 2.24398,5.00144 5.00144,5.00144 2.75747,0 5.00144,-2.24397 5.00144,-5.00144 0,-2.75747 -2.24397,-5.00144 -5.00144,-5.00144 z m 0,6.66858 c -0.92026,0 -1.66714,-0.74687 -1.66714,-1.66714 0,-0.92027 0.74688,-1.66714 1.66714,-1.66714 0.92027,0 1.66714,0.74687 1.66714,1.66714 0,0.92027 -0.74687,1.66714 -1.66714,1.66714 z" />
                <ellipse
                   ry="1.0457695"
                   rx="1.0659451"
                   cy="132.99922"
                   cx="122.28033"
                   id="path947"
                   style="opacity:1;fill:#ffffff;fill-opacity:1;stroke:none;stroke-width:0.10696246;stroke-miterlimit:4;stroke-dasharray:none;stroke-opacity:1" />
                <path
                   inkscape:connector-curvature="0"
                   id="path906"
                   d="m 122.27358,129.99407 c -1.654,0 -3,1.346 -3,3 0,1.654 1.346,3 3,3 1.654,0 3,-1.346 3,-3 0,-1.654 -1.346,-3 -3,-3 z m 0,4 c -0.552,0 -1,-0.448 -1,-1 0,-0.552 0.448,-1 1,-1 0.552,0 1,0.448 1,1 0,0.552 -0.448,1 -1,1 z" />
              </g>
            </g>
          </g>
          <path
             style="fill:#ffffff;stroke:#ffffff;stroke-width:0.125px;stroke-linecap:butt;stroke-linejoin:miter;stroke-opacity:1"
             d="m 85.53386,107.47577 h -6.615879 l 4.753426,2.39062 z"
             id="path945"
             inkscape:connector-curvature="0" />
        </g>
      </g>
    </g>
    <rect
       y="111.96069"
       x="31.292383"
       height="12.579852"
       width="14.152334"
       id="rect1042"
       style="opacity:1;fill:#ffffff;fill-opacity:1;stroke:none;stroke-width:0.09448819;stroke-miterlimit:4;stroke-dasharray:none;stroke-opacity:1" />
  </g>
</svg>
